<?xml version="1.0" standalone="no"?>
<!DOCTYPE svg PUBLIC "-//W3C//DTD SVG 20010904//EN"
 "http://www.w3.org/TR/2001/REC-SVG-20010904/DTD/svg10.dtd">
<svg version="1.0" xmlns="http://www.w3.org/2000/svg"
 width="832.000000pt" height="832.000000pt" viewBox="0 0 832.000000 832.000000"
 preserveAspectRatio="xMidYMid meet">
<metadata>
Created by potrace 1.14, written by Peter Selinger 2001-2017
</metadata>
<g transform="translate(0.000000,832.000000) scale(0.100000,-0.100000)"
fill="#000000" stroke="none">
<path d="M5727 8304 c-21 -7 -52 -23 -70 -36 -58 -41 -4494 -4482 -4513 -4518
-25 -47 -26 -161 -2 -211 27 -56 78 -105 138 -133 l55 -26 944 0 c520 0 946
-2 948 -4 2 -2 -29 -102 -68 -222 -40 -121 -73 -221 -74 -224 -1 -3 -19 -59
-40 -125 -22 -66 -39 -122 -40 -125 -1 -3 -67 -205 -147 -450 -135 -411 -160
-486 -163 -500 -1 -3 -4 -12 -8 -20 -5 -13 -88 -266 -139 -425 -10 -33 -22
-67 -25 -75 -3 -8 -7 -19 -9 -25 -1 -5 -16 -53 -34 -105 -17 -52 -33 -99 -34
-105 -2 -5 -6 -17 -9 -25 -6 -17 -180 -552 -182 -560 0 -3 -7 -23 -15 -45 -61
-178 94 -362 287 -341 30 3 75 15 99 25 35 16 526 502 2293 2268 2036 2035
2250 2252 2264 2295 19 59 16 152 -8 197 -24 46 -82 103 -130 126 -39 19 -68
20 -997 23 -527 1 -958 5 -958 8 0 2 29 93 65 202 36 108 85 260 111 337 25
77 47 145 48 150 2 6 6 17 9 25 8 19 58 172 61 185 3 17 147 459 156 480 8 19
164 495 165 505 1 7 229 701 266 810 16 47 29 93 29 103 0 9 5 17 12 17 6 0 9
2 6 6 -3 3 10 51 29 107 44 131 45 133 45 193 -1 136 -115 245 -262 250 -36 1
-82 -4 -103 -12z"/>
</g>
</svg>
